<?xml version="1.0" encoding="utf-8"?>
<!-- Svg Vector Icons : http://www.onlinewebfonts.com/icon -->
<!DOCTYPE svg PUBLIC "-//W3C//DTD SVG 1.1//EN" "http://www.w3.org/Graphics/SVG/1.1/DTD/svg11.dtd">
<svg version="1.1" xmlns="http://www.w3.org/2000/svg" xmlns:xlink="http://www.w3.org/1999/xlink" x="0px" y="0px" viewBox="0 0 256 256" enable-background="new 0 0 256 256" xml:space="preserve">
<metadata> Svg Vector Icons : http://www.onlinewebfonts.com/icon </metadata>
<g><g><path fill="#000000" d="M128,246c-65.2,0-118-52.8-118-118C10,62.8,62.8,10,128,10c65.2,0,118,52.8,118,118C246,193.2,193.2,246,128,246z M183.1,180.1c0-2.6,0-9.9,0-16.2v-0.1c0,0,0,0,0-0.1c-0.1-8.6-9.2-25.5-36.4-30.4c10-5.8,16.7-16.5,16.7-28.9c0-18.5-15-33.4-33.4-33.4c-18.5,0-33.4,15-33.4,33.4c0,12.4,6.8,23.2,16.8,29c-25.1,4.4-36,18.4-38,28.1c-0.2,0.7-0.4,1.5-0.4,2.3v1c0,3.4,0,6.7,0,9.5c0,2.6,0,4.7,0,5.9v2c0,1.6,1.3,2.9,2.9,2.9h2c1.6,0,2.9-1.3,2.9-2.9v-2v-5.9v-6.9h0.4c2.4-14.4,17.8-27.5,46-27.5c30.7,0,44.8,14.4,45.9,29.5h0.1v10.8v2c0,1.6,1.3,2.9,3,2.9h2c1.6,0,2.9-1.3,2.9-2.9V180.1L183.1,180.1z M104.4,104.4c0-14.1,11.4-25.6,25.6-25.6c14.1,0,25.6,11.4,25.6,25.6c0,14.1-11.4,25.6-25.6,25.6C115.8,130,104.4,118.5,104.4,104.4z"/></g></g>
</svg>