<?xml version="1.0" encoding="UTF-8"?> <svg xmlns="http://www.w3.org/2000/svg" width="106" height="106" viewBox="0 0 106 106" fill="none"><path d="M101.706 19.8747C101.67 19.2683 101.413 18.6962 100.983 18.2667C100.553 17.8371 99.9814 17.5799 99.375 17.5435C78.2579 16.3013 61.331 22.6861 54.0973 34.6277C49.2818 42.5819 49.3853 52.2999 54.3168 61.5418C51.1546 65.1614 48.9508 69.5163 47.9071 74.2079L39.7086 66.0054C43.0833 59.339 43.0625 52.362 39.5761 46.6065C34.272 37.8491 21.9454 33.1536 6.58364 34.0646C5.97659 34.1011 5.404 34.3589 4.97436 34.7893C4.54471 35.2197 4.28786 35.7928 4.25247 36.3999C3.34981 51.7575 8.037 64.0841 16.7944 69.3883C19.6466 71.1315 22.9255 72.0515 26.2682 72.0465C29.7299 72.0108 33.1344 71.1597 36.2057 69.5622L47.2032 80.5265V92.7497C47.2032 93.4086 47.4649 94.0405 47.9308 94.5064C48.3967 94.9723 49.0287 95.234 49.6875 95.234C50.3464 95.234 50.9784 94.9723 51.4443 94.5064C51.9102 94.0405 52.1719 93.4086 52.1719 92.7497V80.539C52.1554 74.8475 54.1764 69.3381 57.8694 65.0075C62.5111 67.4629 67.2769 68.6968 71.873 68.6968C76.3685 68.7116 80.7806 67.4835 84.622 65.1483C96.5636 57.9229 102.948 40.9919 101.706 19.8747ZM19.3699 65.1358C12.6165 61.049 8.85684 51.3434 9.10942 38.9215C21.5313 38.6524 31.2245 42.4162 35.3113 49.1696C37.6632 53.0494 37.8619 57.6082 35.949 62.2498L24.9432 51.2399C24.477 50.7737 23.8447 50.5118 23.1855 50.5118C22.5262 50.5118 21.894 50.7737 21.4278 51.2399C20.9616 51.7061 20.6997 52.3383 20.6997 52.9976C20.6997 53.6569 20.9616 54.2891 21.4278 54.7553L32.4501 65.7735C27.8085 67.6865 23.2497 67.4919 19.3699 65.1358ZM82.0507 60.9041C75.9474 64.5976 68.7427 64.7052 61.4842 61.2768L84.5723 38.1928C84.8031 37.962 84.9862 37.6879 85.1112 37.3864C85.2361 37.0848 85.3004 36.7615 85.3004 36.4351C85.3004 36.1087 85.2361 35.7854 85.1112 35.4838C84.9862 35.1823 84.8031 34.9082 84.5723 34.6774C84.3415 34.4466 84.0675 34.2635 83.7659 34.1386C83.4643 34.0136 83.1411 33.9493 82.8146 33.9493C82.4882 33.9493 82.1649 34.0136 81.8634 34.1386C81.5618 34.2635 81.2877 34.4466 81.0569 34.6774L57.9688 57.7655C54.5404 50.507 54.6563 43.3023 58.3415 37.2032C64.3536 27.2657 78.6554 21.8083 96.8493 22.4004C97.4414 40.5778 91.9799 54.8878 82.0507 60.9041Z" fill="#1226AA"></path></svg> 